<svg aria-hidden="true" style="position: absolute; width: 0; height: 0; overflow: hidden;" version="1.1" xmlns="http://www.w3.org/2000/svg" xmlns:xlink="http://www.w3.org/1999/xlink">
<defs>
<symbol id="maps" viewBox="0 0 23 32">
<path fill="#999" style="fill: var(--color1, #999)" d="M11.711 0c-6.467 0-11.728 5.261-11.728 11.728 0 2.971 1.872 7.168 5.564 12.475 2.698 3.88 5.353 6.882 5.464 7.008l0.7 0.789 0.7-0.789c0.112-0.126 2.766-3.128 5.464-7.008 3.692-5.307 5.564-9.505 5.564-12.475 0-6.467-5.261-11.728-11.728-11.728zM16.35 23.12c-1.824 2.624-3.667 4.882-4.639 6.035-0.969-1.149-2.805-3.399-4.628-6.019-3.421-4.917-5.229-8.862-5.229-11.407 0-5.435 4.422-9.857 9.857-9.857s9.857 4.422 9.857 9.857c0 2.542-1.804 6.481-5.218 11.392z"></path>
</symbol>
<symbol id="phone" viewBox="0 0 32 32">
<path fill="#999" style="fill: var(--color1, #999)" d="M31.16 24.687l-6.477-4.319c-0.822-0.544-1.924-0.365-2.531 0.411l-1.887 2.426c-0.242 0.32-0.683 0.412-1.034 0.218l-0.359-0.198c-1.19-0.648-2.67-1.456-5.652-4.439s-3.791-4.465-4.44-5.652l-0.197-0.359c-0.198-0.351-0.107-0.793 0.213-1.038l2.424-1.886c0.776-0.608 0.955-1.709 0.412-2.531l-4.319-6.477c-0.557-0.837-1.673-1.089-2.535-0.571l-2.708 1.627c-0.851 0.5-1.475 1.311-1.742 2.261-0.975 3.554-0.242 9.687 8.793 18.722 7.187 7.186 12.537 9.118 16.214 9.118 0.846 0.004 1.689-0.106 2.506-0.327 0.951-0.266 1.761-0.891 2.261-1.742l1.629-2.707c0.519-0.862 0.268-1.979-0.57-2.536zM30.812 26.676l-1.625 2.708c-0.359 0.614-0.942 1.066-1.626 1.261-3.281 0.901-9.012 0.155-17.685-8.519s-9.419-14.404-8.519-17.685c0.195-0.685 0.647-1.269 1.262-1.629l2.708-1.625c0.374-0.225 0.859-0.116 1.1 0.247l4.316 6.476c0.236 0.357 0.158 0.835-0.178 1.099l-2.425 1.886c-0.738 0.564-0.949 1.585-0.494 2.395l0.193 0.35c0.682 1.25 1.529 2.805 4.622 5.898s4.648 3.94 5.897 4.622l0.35 0.193c0.81 0.454 1.831 0.243 2.395-0.494l1.886-2.425c0.264-0.336 0.742-0.414 1.099-0.178l6.476 4.319c0.364 0.241 0.473 0.726 0.247 1.1z"></path>
<path fill="#999" style="fill: var(--color1, #999)" d="M18.133 5.336c5.004 0.006 9.060 4.061 9.065 9.065 0 0.295 0.239 0.533 0.533 0.533s0.533-0.239 0.533-0.533c-0.006-5.593-4.539-10.126-10.132-10.132-0.294 0-0.533 0.239-0.533 0.533s0.239 0.533 0.533 0.533z"></path>
<path fill="#999" style="fill: var(--color1, #999)" d="M18.133 8.536c3.238 0.004 5.862 2.628 5.866 5.866 0 0.294 0.239 0.533 0.533 0.533s0.533-0.239 0.533-0.533c-0.004-3.827-3.106-6.928-6.932-6.932-0.294 0-0.533 0.239-0.533 0.533s0.239 0.533 0.533 0.533z"></path>
<path fill="#999" style="fill: var(--color1, #999)" d="M18.133 11.736c1.472 0.002 2.665 1.194 2.666 2.666 0 0.295 0.239 0.533 0.533 0.533s0.533-0.239 0.533-0.533c-0.002-2.061-1.672-3.73-3.733-3.733-0.294 0-0.533 0.239-0.533 0.533s0.239 0.533 0.533 0.533z"></path>
</symbol>
<symbol id="email" viewBox="0 0 37 32">
<path fill="#999" style="fill: var(--color1, #999)" d="M32.416 1.95h-27.9c-2.491 0-4.515 2.025-4.515 4.515v19.069c0 2.491 2.025 4.515 4.515 4.515h27.893c2.491 0 4.515-2.025 4.515-4.515v-19.061c0.008-2.491-2.017-4.523-4.508-4.523zM34.868 25.534c0 1.352-1.1 2.452-2.452 2.452h-27.9c-1.352 0-2.452-1.1-2.452-2.452v-19.061c0-1.352 1.1-2.452 2.452-2.452h27.893c1.352 0 2.452 1.1 2.452 2.452v19.061h0.008z"></path>
<path fill="#999" style="fill: var(--color1, #999)" d="M23.286 15.763l9.030-8.098c0.42-0.382 0.458-1.031 0.076-1.459-0.382-0.42-1.031-0.458-1.459-0.076l-12.453 11.177-2.429-2.17c-0.008-0.008-0.015-0.015-0.015-0.023-0.053-0.053-0.107-0.099-0.168-0.145l-9.886-8.847c-0.428-0.382-1.077-0.344-1.459 0.084s-0.344 1.077 0.084 1.459l9.137 8.167-9.099 8.518c-0.413 0.39-0.435 1.039-0.046 1.459 0.206 0.214 0.481 0.329 0.756 0.329 0.252 0 0.504-0.092 0.703-0.275l9.236-8.64 2.506 2.238c0.199 0.176 0.443 0.26 0.688 0.26s0.497-0.092 0.688-0.267l2.575-2.307 9.183 8.725c0.199 0.191 0.459 0.283 0.711 0.283 0.275 0 0.542-0.107 0.749-0.321 0.39-0.413 0.374-1.070-0.038-1.459l-9.068-8.61z"></path>
</symbol>

<symbol id="scrool" viewBox="0 0 19 32">
<path fill="#999" style="fill: var(--color1, #999)" d="M3.624 30.090c-0.198 0.198-0.446 0.298-0.719 0.298s-0.521-0.099-0.719-0.298c-0.397-0.397-0.397-1.042 0-1.439l12.651-12.651-12.651-12.651c-0.397-0.397-0.397-1.042 0-1.439s1.042-0.397 1.439 0l13.371 13.371c0.397 0.397 0.397 1.042 0 1.439l-13.371 13.371z"></path>
</symbol>
</defs>
</svg>
